<svg xmlns="http://www.w3.org/2000/svg" version="1.1"><polyline points="341.0,2.0,340.5,6.0,340.5,10.5,340.0,14.5,340.0,18.5,340.0,22.0,337.5,26.0,333.5,29.5,330.0,33.5,326.0,37.5,322.0,41.5,318.0,45.0,321.5,41.0,325.5,37.5,329.0,34.0,333.0,30.5,337.5,26.5" stroke="black" stroke-width="2" fill="none" />
<polyline points="344.0,26.0,348.0,21.5,352.0,18.0,356.0,14.5,359.5,10.5,364.0,7.0,368.0,3.0,368.0,4.0,364.0,8.5,360.0,13.0,356.0,17.0,351.0,21.0,347.0,25.0,344.5,28.5" stroke="black" stroke-width="2" fill="none" />
<polyline points="347.5,18.0,351.5,13.5,355.5,9.5,359.5,6.0,363.5,2.0" stroke="black" stroke-width="2" fill="none" />
<polyline points="380.0,0.5,380.5,4.5,380.5,8.5,381.0,13.0,380.5,16.5,380.5,21.0,380.0,25.0,380.0,29.5,380.0,34.0,380.5,38.0,380.5,42.0,380.0,46.5,380.5,50.5,380.0,54.5,379.5,58.0,379.0,62.0,379.0,66.0,379.0,70.0,379.5,74.5,379.5,79.0,379.5,82.5,379.5,86.5,379.5,90.0,379.5,94.0,379.0,98.0,379.0,101.5,379.0,105.5" stroke="black" stroke-width="2" fill="none" />
<polyline points="343.0,119.5,343.0,123.5,343.5,127.5,343.5,131.5,343.5,135.0,344.0,138.5,343.5,142.5,343.5,146.5,343.5,150.0,344.0,154.0,344.0,157.5,344.0,162.0,344.0,166.5,344.0,170.5,343.5,175.0,343.5,179.0,343.0,183.0,343.0,187.0,343.0,191.5,343.0,195.5,343.0,199.5,348.0,203.0" stroke="black" stroke-width="2" fill="none" />
<polyline points="343.5,200.0,347.5,202.0,351.5,204.5,356.0,206.0,360.5,207.0,364.0,209.0,368.0,211.0,372.0,212.5,376.0,215.5" stroke="black" stroke-width="2" fill="none" />
<polyline points="376.0,214.5,370.0,210.0,362.0,206.0" stroke="black" stroke-width="2" fill="none" />
<polyline points="335.0,199.5,331.0,197.0,327.0,195.5" stroke="black" stroke-width="2" fill="none" />
<polyline points="325.0,196.0,321.0,196.0" stroke="black" stroke-width="2" fill="none" />
<polyline points="314.0,192.0,310.0,197.5,305.5,199.5,301.0,200.5,297.0,200.5,293.0,198.0,288.5,194.0,285.0,190.0,281.0,183.5,277.0,174.0,273.0,173.0,269.0,168.5" stroke="black" stroke-width="2" fill="none" />
<polyline points="268.0,170.5,266.0,166.5" stroke="black" stroke-width="2" fill="none" />
<polyline points="266.0,153.5,270.0,151.5,270.5,152.5,272.5,156.5,271.5,160.5,273.5,163.5,274.0,167.0,274.5,171.0,274.5,175.0,274.5,178.5,274.5,183.0,274.5,187.0,275.5,191.5,275.5,196.0,275.5,200.0,275.5,204.5" stroke="black" stroke-width="2" fill="none" />
<polyline points="280.5,204.0,281.0,208.0,282.5,212.0,285.0,212.5" stroke="black" stroke-width="2" fill="none" />
<polyline points="287.5,212.5,283.5,206.0" stroke="black" stroke-width="2" fill="none" />
<polyline points="279.5,208.5,283.5,214.0,287.0,216.5,290.5,217.5,294.5,218.0,298.5,218.0,302.5,217.5,307.0,217.0,311.0,215.0" stroke="black" stroke-width="2" fill="none" />
<polyline points="317.5,209.0,318.0,206.5,323.0,201.0,320.0,204.5,320.5,208.5,317.0,214.0,320.5,212.0,324.5,207.0" stroke="black" stroke-width="2" fill="none" />
<polyline points="305.0,202.5,301.0,203.0,297.0,202.5,293.0,201.0,289.0,197.0,285.5,193.0,281.5,187.0" stroke="black" stroke-width="2" fill="none" />
<polyline points="281.0,186.5,284.0,190.5,288.0,194.5,292.0,198.5" stroke="black" stroke-width="2" fill="none" />
<polyline points="293.5,200.5,289.0,196.5" stroke="black" stroke-width="2" fill="none" />
<polyline points="285.5,197.5,290.0,201.5,294.5,204.0" stroke="black" stroke-width="2" fill="none" />
<polyline points="291.0,206.0,295.0,208.0,299.5,209.5,303.5,209.5" stroke="black" stroke-width="2" fill="none" />
<polyline points="305.5,198.0,308.5,194.0,308.0,189.0,308.0,185.0,310.5,182.0,309.5,182.5,305.5,182.5,302.0,183.0,298.0,182.5" stroke="black" stroke-width="2" fill="none" />
<polyline points="304.0,181.0,300.0,179.5,295.5,181.0,291.5,181.5" stroke="black" stroke-width="2" fill="none" />
<polyline points="291.0,183.5,295.0,183.5,299.5,184.0,303.5,184.5,307.5,184.5,309.0,186.0" stroke="black" stroke-width="2" fill="none" />
<polyline points="303.5,188.5,299.0,188.5,295.0,188.5" stroke="black" stroke-width="2" fill="none" />
<polyline points="294.0,188.0,295.5,189.5,299.5,191.5,303.5,191.5,307.0,189.0,311.0,187.5" stroke="black" stroke-width="2" fill="none" />
<polyline points="314.0,189.5,311.5,193.0,308.5,197.0" stroke="black" stroke-width="2" fill="none" />
<polyline points="321.0,183.0,321.0,187.0,321.0,190.5,326.0,195.0,327.0,199.0,326.0,203.5,323.0,207.5,318.0,212.0,314.0,219.0,312.5,223.0,310.5,228.0,308.5,231.5,307.0,235.0,303.0,238.5,301.5,243.0,297.0,247.0,288.5,248.5,291.5,247.5" stroke="black" stroke-width="2" fill="none" />
<polyline points="293.5,247.5,291.5,249.5,295.0,246.0" stroke="black" stroke-width="2" fill="none" />
<polyline points="295.5,244.5,286.5,248.5,281.0,254.5,277.0,259.0,278.0,261.0,278.0,265.0,276.5,267.5,279.0,271.5,282.5,275.0,285.0,276.0,288.0,273.5" stroke="black" stroke-width="2" fill="none" />
<polyline points="289.5,282.0,285.5,287.0" stroke="black" stroke-width="2" fill="none" />
<polyline points="278.5,283.0,274.5,282.5" stroke="black" stroke-width="2" fill="none" />
<polyline points="274.0,284.5,276.0,288.5" stroke="black" stroke-width="2" fill="none" />
<polyline points="267.5,287.5,269.0,283.5" stroke="black" stroke-width="2" fill="none" />
<polyline points="280.5,281.0,278.0,277.0,277.5,273.0" stroke="black" stroke-width="2" fill="none" />
<polyline points="283.5,267.0,284.0,271.0,284.0,266.5,278.5,262.5" stroke="black" stroke-width="2" fill="none" />
<polyline points="280.0,262.5,279.5,259.5,282.5,258.5,277.0,259.0,280.5,254.5,284.5,252.5,288.5,251.5,292.5,250.5,296.5,249.5,300.5,249.0" stroke="black" stroke-width="2" fill="none" />
<polyline points="300.5,248.5,304.5,252.0,303.5,259.0,301.0,263.0,293.5,267.0,291.5,272.0,291.5,276.0,291.0,280.0,287.5,284.0,284.5,289.0,283.5,293.0,282.5,297.0,281.5,300.5,280.5,304.0,279.5,307.5,279.0,311.0,278.0,315.0,276.5,319.0,275.5,323.0,274.0,327.0,272.0,331.0,269.0,335.0,266.5,339.5,266.0,343.5,265.0,347.5,262.5,352.0,259.0,356.0,258.0,360.0,256.5,364.0,255.5,368.0,254.0,372.5,253.5,376.0,253.5,380.0" stroke="black" stroke-width="2" fill="none" />
<polyline points="266.5,384.0,267.5,380.5,268.5,376.5,270.0,372.0,271.0,368.0,270.5,363.5,270.0,369.5" stroke="black" stroke-width="2" fill="none" />
<polyline points="266.0,364.0,267.0,360.0" stroke="black" stroke-width="2" fill="none" />
<polyline points="267.0,360.0,263.0,359.5,258.5,362.5,262.5,359.0" stroke="black" stroke-width="2" fill="none" />
<polyline points="264.0,351.0,268.0,349.5,272.0,349.0,276.0,350.0,280.5,352.0,284.5,355.5" stroke="black" stroke-width="2" fill="none" />
<polyline points="275.5,350.5,270.5,350.0,266.5,350.5" stroke="black" stroke-width="2" fill="none" />
<polyline points="275.0,350.5,282.0,354.5,285.5,358.0" stroke="black" stroke-width="2" fill="none" />
<polyline points="290.5,364.5,291.5,369.0,293.5,373.0,295.5,377.0,297.0,380.5,298.0,385.0" stroke="black" stroke-width="2" fill="none" />
<polyline points="300.0,383.5,296.0,372.5,292.0,364.5" stroke="black" stroke-width="2" fill="none" />
<polyline points="286.5,370.5,290.5,377.0" stroke="black" stroke-width="2" fill="none" />
<polyline points="282.5,376.0,284.5,380.0,285.5,384.0" stroke="black" stroke-width="2" fill="none" />
<polyline points="290.5,382.0,289.0,378.0,286.5,374.0,284.0,370.5" stroke="black" stroke-width="2" fill="none" />
<polyline points="256.5,366.5,260.5,357.0,265.0,352.5,268.0,343.5,271.0,335.5,275.0,328.5" stroke="black" stroke-width="2" fill="none" />
<polyline points="260.5,341.0,256.5,341.0" stroke="black" stroke-width="2" fill="none" />
<polyline points="247.0,347.0,243.0,341.5" stroke="black" stroke-width="2" fill="none" />
<polyline points="240.0,334.0,236.0,327.5" stroke="black" stroke-width="2" fill="none" />
<polyline points="237.5,304.0,233.5,297.5,229.0,298.5" stroke="black" stroke-width="2" fill="none" />
<polyline points="231.0,295.0,229.5,299.0,230.0,303.0,230.0,307.0,230.0,310.5,230.0,314.0,229.0,318.5,228.5,322.0,227.5,326.0,227.0,330.0,227.0,334.0,227.0,338.5,227.0,342.5,227.0,347.0,227.5,351.0,227.5,355.0,228.5,359.0,228.5,363.0,229.5,367.0,230.5,371.0,231.5,375.0,231.5,379.0,231.5,383.0,233.5,384.0,237.5,383.0,241.5,383.0,245.5,382.5,249.5,382.0" stroke="black" stroke-width="2" fill="none" />
<polyline points="330.0,381.0,334.0,380.5,337.5,380.0,341.5,380.0,345.0,379.5,348.5,379.0,353.0,379.0,356.5,379.0,360.5,379.0,364.5,378.5,368.5,378.0,372.5,378.0" stroke="black" stroke-width="2" fill="none" />
<polyline points="374.0,364.5,376.0,367.0,374.5,363.0,373.5,363.5" stroke="black" stroke-width="2" fill="none" />
<polyline points="375.0,367.5,371.0,361.0,367.5,360.5" stroke="black" stroke-width="2" fill="none" />
<polyline points="367.5,361.5,372.0,365.5,373.0,369.5,371.0,373.5" stroke="black" stroke-width="2" fill="none" />
<polyline points="367.5,374.5,363.5,372.0,359.5,367.0" stroke="black" stroke-width="2" fill="none" />
<polyline points="359.0,364.5,363.0,361.0,367.0,359.5,371.0,358.5,375.0,356.5,379.0,355.0,383.0,353.5,387.5,353.5,391.0,353.0,394.5,353.5,399.5,354.5,403.5,355.5,407.5,355.5,411.5,347.5" stroke="black" stroke-width="2" fill="none" />
<polyline points="410.0,356.0,414.0,358.5" stroke="black" stroke-width="2" fill="none" />
<polyline points="408.5,364.5,407.0,368.5,407.0,372.5,406.0,376.5,405.5,381.0,403.0,385.0,403.5,381.0,408.5,385.5" stroke="black" stroke-width="2" fill="none" />
<polyline points="414.5,384.5,418.5,384.5,423.0,384.0,427.0,383.5,431.0,383.5,435.5,383.0,440.0,382.5,444.0,382.5,448.0,382.0,451.5,381.5,455.5,381.0,459.5,380.5,463.5,380.5,467.0,379.5,471.0,379.5,474.5,378.5,478.5,378.0,482.0,377.5,486.0,377.0,490.0,377.0,491.0,380.0,490.5,384.0" stroke="black" stroke-width="2" fill="none" />
<polyline points="506.5,377.5,499.5,373.0,495.5,369.0,493.5,365.0" stroke="black" stroke-width="2" fill="none" />
<polyline points="512.0,357.0,508.0,358.0,504.0,358.5,500.5,358.5,496.5,359.0,492.5,359.0,489.0,359.5,485.0,359.5,480.5,359.0,476.0,359.0,472.0,359.0,468.0,359.5" stroke="black" stroke-width="2" fill="none" />
<polyline points="446.0,369.0,441.5,369.0,437.5,369.5,433.5,370.0,429.5,370.5,425.5,370.5,421.5,371.0,417.5,371.5" stroke="black" stroke-width="2" fill="none" />
<polyline points="408.0,367.0,407.5,371.0,407.5,374.5,407.5,378.5,407.0,382.5" stroke="black" stroke-width="2" fill="none" />
<polyline points="399.0,378.5,398.0,383.0,395.5,381.0" stroke="black" stroke-width="2" fill="none" />
<polyline points="399.0,383.0,399.0,379.0,399.5,375.0,400.0,371.0,400.5,367.0" stroke="black" stroke-width="2" fill="none" />
<polyline points="389.0,363.5,389.0,367.5,389.5,371.5,389.5,375.5,389.0,379.5,388.5,383.5" stroke="black" stroke-width="2" fill="none" />
<polyline points="373.5,378.0,369.0,378.5,365.0,378.5,361.0,379.5,357.5,380.0,353.5,380.5,349.0,381.0,345.0,381.0" stroke="black" stroke-width="2" fill="none" />
<polyline points="366.0,372.5,361.5,369.0,360.0,365.0,362.5,361.5" stroke="black" stroke-width="2" fill="none" />
<polyline points="376.0,357.0,375.0,361.0,376.5,365.5,375.5,369.5,377.0,372.0,378.0,376.0,377.0,380.0,376.0,384.0" stroke="black" stroke-width="2" fill="none" />
<polyline points="387.0,383.5,386.0,381.0,388.5,377.0,388.5,373.5,388.5,369.5,388.0,365.5,389.0,361.5" stroke="black" stroke-width="2" fill="none" />
<polyline points="397.0,358.0,395.0,354.0" stroke="black" stroke-width="2" fill="none" />
<polyline points="400.0,354.0,399.5,358.0,398.5,362.0,399.0,366.5,396.5,370.5,396.5,374.5,397.0,378.0,393.5,382.0,392.0,380.0,396.0,379.5" stroke="black" stroke-width="2" fill="none" />
<polyline points="410.0,316.5,406.0,308.5,402.0,297.5" stroke="black" stroke-width="2" fill="none" />
<polyline points="397.0,282.0,399.0,283.0,399.5,287.0,400.5,291.0,402.0,295.0,403.0,299.0,404.5,303.0,405.5,307.0,407.5,311.0,410.0,314.5,411.5,319.0,413.0,322.5,413.5,326.5,414.5,330.0,415.0,334.0,415.0,338.0,414.0,342.0,413.5,346.5,412.0,350.5,412.5,356.5,415.0,360.5,416.5,364.5,417.5,368.5,418.0,372.0,416.5,376.0,414.0,380.0,411.0,383.5,412.5,380.5,416.5,373.5,420.5,372.0,424.5,371.5,428.5,371.0,432.5,371.5,436.5,371.5,440.5,371.5,444.5,371.5,448.0,371.0,452.0,370.0,456.0,369.5,460.0,369.5,464.0,369.0" stroke="black" stroke-width="2" fill="none" />
<polyline points="509.0,353.5,509.0,349.5" stroke="black" stroke-width="2" fill="none" />
<polyline points="510.0,348.0,509.5,352.0" stroke="black" stroke-width="2" fill="none" />
<polyline points="400.5,260.5,397.0,252.0,393.0,244.0,389.5,236.5" stroke="black" stroke-width="2" fill="none" />
<polyline points="404.0,272.0,400.0,274.5,396.0,277.5,392.0,281.5,388.5,283.5,384.5,285.5,380.5,287.5,376.5,288.5,373.0,289.5,369.0,287.0,365.0,281.5" stroke="black" stroke-width="2" fill="none" />
<polyline points="365.0,280.5,365.0,284.5,364.0,288.5,363.0,292.0,362.5,296.0,363.0,300.0,364.0,304.5,365.0,308.0,365.5,312.5,365.5,316.5,366.5,320.5,367.5,324.5,368.0,328.5,369.0,332.5,369.0,337.0,370.0,341.0,370.5,345.0,371.5,349.0,372.0,353.0" stroke="black" stroke-width="2" fill="none" />
<polyline points="380.0,311.5,376.5,302.0,372.5,291.5" stroke="black" stroke-width="2" fill="none" />
<polyline points="365.5,282.5,368.0,286.5,371.5,290.0,372.0,294.0,373.5,297.5,374.5,301.0,376.0,305.0,377.5,309.0,379.5,313.0,381.5,317.0,382.5,320.5,383.0,324.5,382.5,328.5,381.5,333.0,381.5,337.0,382.0,341.0,382.5,345.5,382.5,349.5,382.0,353.5,371.5,358.0,369.5,364.0,372.5,368.0,373.0,371.0" stroke="black" stroke-width="2" fill="none" />
<polyline points="302.0,255.5,298.5,257.0,294.5,258.0" stroke="black" stroke-width="2" fill="none" />
<polyline points="296.5,257.5,294.0,261.5,300.0,260.5,304.0,261.0" stroke="black" stroke-width="2" fill="none" />
<polyline points="300.5,258.0,296.0,259.5,292.0,261.0,288.0,262.5" stroke="black" stroke-width="2" fill="none" />
<polyline points="282.0,256.5,286.0,259.0,289.5,257.5,293.5,256.0,287.5,258.0,286.5,262.0,280.0,265.5,281.5,266.0,286.0,264.0,288.5,268.0,292.5,268.5,296.5,266.5,300.5,264.5" stroke="black" stroke-width="2" fill="none" />
<polyline points="303.0,243.0,299.0,245.5,295.5,244.5,291.5,246.0,288.0,248.0,284.0,248.5,280.0,245.0" stroke="black" stroke-width="2" fill="none" />
<polyline points="276.5,246.5,275.5,250.5,275.5,254.0,276.0,252.0,278.5,243.5,282.5,241.0,286.5,240.0,291.0,238.5,295.0,237.5" stroke="black" stroke-width="2" fill="none" />
<polyline points="299.0,237.5,294.5,236.5,291.0,237.0,287.0,238.5,284.0,239.5,280.0,239.0" stroke="black" stroke-width="2" fill="none" />
<polyline points="285.5,235.0,280.0,238.5,278.5,242.5,276.0,246.5,274.5,251.0,273.5,255.0,272.5,258.5,273.0,262.5,273.0,266.5,272.0,270.5,270.5,274.5,268.5,278.0,266.5,281.5,264.5,285.5,262.0,290.0,260.5,294.0,258.0,298.5,254.5,302.5,249.5,306.5,243.5,310.5,240.5,314.5,243.5,311.5,247.5,308.0,251.5,305.5,255.5,301.5,259.0,296.0" stroke="black" stroke-width="2" fill="none" />
<polyline points="242.5,288.5,241.5,292.5,240.5,296.5,240.0,300.5,240.0,304.5,240.0,308.5,239.0,312.0,238.0,315.5,237.0,319.5,237.5,323.5,237.0,327.0,239.0,331.0,242.0,335.5,242.0,339.5,243.0,343.0" stroke="black" stroke-width="2" fill="none" />
<polyline points="236.0,303.5,233.5,299.0,232.0,294.5" stroke="black" stroke-width="2" fill="none" />
<polyline points="240.5,287.5,244.5,287.5,249.0,287.5,253.0,287.5,257.5,287.0,262.0,287.0,266.0,284.5,270.0,278.0,274.5,269.0" stroke="black" stroke-width="2" fill="none" />
<polyline points="277.0,264.5,281.0,271.0" stroke="black" stroke-width="2" fill="none" />
<polyline points="275.5,249.0,279.5,237.5,283.5,234.5,287.0,233.5,290.5,232.5,292.5,230.5,296.5,232.5,300.5,234.0,304.5,235.0,308.5,228.0" stroke="black" stroke-width="2" fill="none" />
<polyline points="288.0,224.0,285.0,222.0" stroke="black" stroke-width="2" fill="none" />
<polyline points="287.5,220.0,289.0,224.0,291.5,230.5,296.5,235.5,300.5,237.0,302.0,238.0,306.0,237.0,310.5,230.0,314.0,224.0,317.0,217.0" stroke="black" stroke-width="2" fill="none" />
<polyline points="320.5,182.5,324.5,172.5" stroke="black" stroke-width="2" fill="none" />
<polyline points="316.5,178.0,314.0,182.0,312.0,186.5,310.0,190.0" stroke="black" stroke-width="2" fill="none" />
<polyline points="308.5,176.0,311.5,172.0,309.5,168.0,305.5,171.5,301.5,173.5,297.0,173.5,293.0,172.0" stroke="black" stroke-width="2" fill="none" />
<polyline points="293.5,172.0,294.0,170.5,294.0,174.0,297.5,176.0,302.0,177.0,306.0,178.0,306.0,175.5" stroke="black" stroke-width="2" fill="none" />
<polyline points="308.0,161.5,312.0,163.5,316.5,161.5" stroke="black" stroke-width="2" fill="none" />
<polyline points="318.0,163.5,317.5,160.0,320.5,157.0,316.5,156.5" stroke="black" stroke-width="2" fill="none" />
<polyline points="320.5,159.0,316.0,157.0,312.0,156.0,307.5,156.5" stroke="black" stroke-width="2" fill="none" />
<polyline points="309.0,153.5,312.5,154.5,316.0,153.5,320.0,154.0" stroke="black" stroke-width="2" fill="none" />
<polyline points="320.0,152.0,324.0,156.5" stroke="black" stroke-width="2" fill="none" />
<polyline points="328.5,156.5,332.5,153.5,330.5,155.5,331.5,156.0,330.5,160.0,329.5,156.5" stroke="black" stroke-width="2" fill="none" />
<polyline points="332.5,155.0,333.0,159.0,331.5,162.5,330.5,166.0,329.5,170.0,327.0,174.5,327.0,178.0,327.0,182.5,326.5,186.5,326.5,190.0,329.0,194.0,336.0,198.5" stroke="black" stroke-width="2" fill="none" />
<polyline points="309.0,173.5,306.5,175.0,307.5,171.0,305.0,167.0,304.5,163.0,304.5,159.0,299.5,157.0,296.0,153.0,293.0,148.5,293.5,145.5,289.5,145.0,285.5,147.5" stroke="black" stroke-width="2" fill="none" />
<polyline points="283.0,146.5,288.5,141.0" stroke="black" stroke-width="2" fill="none" />
<polyline points="290.5,142.0,294.5,142.5" stroke="black" stroke-width="2" fill="none" />
<polyline points="298.0,144.5,302.0,149.0" stroke="black" stroke-width="2" fill="none" />
<polyline points="310.0,151.0,314.0,150.0" stroke="black" stroke-width="2" fill="none" />
<polyline points="316.0,148.5,311.5,147.5,307.5,149.0,304.0,150.0,300.0,146.5,296.5,147.5,292.5,149.5" stroke="black" stroke-width="2" fill="none" />
<polyline points="287.0,152.0,284.5,155.5,285.0,155.5,286.5,156.0,290.5,155.5" stroke="black" stroke-width="2" fill="none" />
<polyline points="287.0,161.5,291.0,162.5,295.5,161.5" stroke="black" stroke-width="2" fill="none" />
<polyline points="294.0,161.0,290.0,161.5,286.0,162.5" stroke="black" stroke-width="2" fill="none" />
<polyline points="283.0,157.5,287.0,157.5,291.0,157.0,295.0,158.0,296.0,159.0" stroke="black" stroke-width="2" fill="none" />
<polyline points="297.0,155.5,293.0,155.0,289.0,154.0,285.0,154.0,281.0,154.0" stroke="black" stroke-width="2" fill="none" />
<polyline points="275.0,147.5,279.0,141.5,278.0,141.5,276.5,145.5,274.5,150.0,274.5,154.0,274.5,158.0,275.0,162.0,276.0,166.0,276.5,170.0,276.0,174.0,277.0,177.5,277.5,181.5,277.5,185.5,277.5,189.0,277.5,193.0,278.0,197.0,278.0,201.0,276.5,203.5,283.0,201.5,283.0,205.5,285.5,208.5,286.5,213.0,288.5,214.5" stroke="black" stroke-width="2" fill="none" />
<polyline points="264.5,210.5,260.5,210.5,256.5,210.5,252.5,210.0" stroke="black" stroke-width="2" fill="none" />
<polyline points="250.0,214.5,250.0,218.5,250.5,222.0" stroke="black" stroke-width="2" fill="none" />
<polyline points="259.0,203.0,259.0,199.0,259.0,195.0,258.5,190.5,258.5,186.5,258.5,183.0,259.0,179.5,259.0,176.0,259.0,172.0,258.5,168.0,259.0,164.5,259.0,160.5,259.5,156.5,259.5,152.5,259.5,148.5,259.5,144.5,259.5,140.0,259.0,136.0,259.5,131.5,259.5,127.0,259.5,123.5,259.0,119.5,259.0,116.0,258.5,112.0,258.0,108.0,258.0,104.0,258.5,100.5,259.0,96.5,259.0,92.5,259.5,88.5,259.0,84.5,259.0,80.0,258.5,76.5,254.5,77.0,250.5,76.5" stroke="black" stroke-width="2" fill="none" />
<polyline points="248.5,77.5,248.5,81.5,248.5,85.0,248.0,88.5,247.5,92.5,247.0,96.0,247.5,100.0,246.0,106.5,245.5,110.5,246.0,114.5,246.0,119.0,246.0,123.0,246.0,127.0,246.0,131.5,246.0,135.5,246.0,139.5,245.5,143.5,245.5,147.5,245.0,151.5,245.5,155.0,245.5,159.0,245.5,163.0,245.0,167.0,245.0,171.0,245.0,175.0,245.0,179.0,245.5,182.5,246.5,186.0,246.5,189.5,247.0,193.5,246.5,197.5,247.0,201.5,247.0,205.5,247.0,210.0,247.0,214.0,247.0,218.5,247.5,222.5,246.0,226.5,245.5,227.0" stroke="black" stroke-width="2" fill="none" />
<polyline points="216.0,218.0,212.0,216.5" stroke="black" stroke-width="2" fill="none" />
<polyline points="212.0,217.0,210.0,221.5,210.0,225.5,208.5,230.0,207.5,234.5,205.5,236.5,207.0,242.5,199.0,244.5,202.5,246.5,203.0,250.5,201.5,254.5,199.5,258.5,195.5,262.5,190.5,266.5,185.5,270.0,189.0,266.5,193.0,263.0,197.0,258.5" stroke="black" stroke-width="2" fill="none" />
<polyline points="203.0,266.0,198.5,271.5,195.0,277.5,196.0,281.5,198.5,277.5,201.0,273.5,204.5,269.5,205.0,265.5" stroke="black" stroke-width="2" fill="none" />
<polyline points="205.0,272.0,203.5,275.5,201.5,280.0,199.5,284.0,192.5,289.5" stroke="black" stroke-width="2" fill="none" />
<polyline points="196.5,285.0,198.5,281.0,201.0,277.0,205.0,273.0,201.5,276.5,197.5,284.0,194.5,285.5,191.5,284.5,193.5,284.0,193.5,279.0,196.0,274.5,199.5,270.5,203.0,266.5,205.0,267.0,201.0,272.0,197.0,279.0,193.0,280.0" stroke="black" stroke-width="2" fill="none" />
<polyline points="204.5,275.0,200.0,284.0,196.5,288.5,192.5,288.5,188.5,287.5,184.5,288.5,180.5,289.5,176.0,287.0,172.0,289.5" stroke="black" stroke-width="2" fill="none" />
<polyline points="182.0,294.5,174.5,298.5,167.0,302.5,161.5,306.0,163.0,304.0,166.5,300.5,170.5,298.5,174.5,296.0,179.0,294.5,183.0,292.5,187.0,292.0,191.0,290.5" stroke="black" stroke-width="2" fill="none" />
<polyline points="185.5,259.5,180.0,263.5,181.5,262.5,185.5,259.5" stroke="black" stroke-width="2" fill="none" />
<polyline points="184.5,258.5,177.5,262.5,181.5,261.0" stroke="black" stroke-width="2" fill="none" />
<polyline points="195.5,245.0,191.5,244.5,187.0,243.5,183.0,242.0,179.0,240.0,175.0,237.0,171.0,233.0,167.0,227.0,163.5,218.0" stroke="black" stroke-width="2" fill="none" />
<polyline points="161.5,213.5,165.5,209.0,169.5,207.5" stroke="black" stroke-width="2" fill="none" />
<polyline points="169.5,212.5,168.0,214.0" stroke="black" stroke-width="2" fill="none" />
<polyline points="172.0,221.0,176.5,222.5,178.0,226.0,180.5,229.0,182.5,229.0" stroke="black" stroke-width="2" fill="none" />
<polyline points="185.5,232.5,187.0,237.0,189.5,237.5,191.0,241.5,194.0,241.0,194.5,247.0,192.0,251.0,186.5,255.0,178.5,259.0,173.5,263.0,169.5,267.0,165.5,271.0,163.0,275.0,159.5,279.0,156.0,283.0,152.5,286.5,147.5,290.5,143.0,294.5,138.5,298.5,133.0,302.5,125.5,306.5,115.5,310.5,108.0,314.5,102.5,319.0,98.5,323.0,96.5,323.0,100.5,318.5,104.5,315.0,108.5,312.5,112.0,310.0,115.5,308.0,119.5,306.5,123.5,304.5,127.5,302.0,128.0,298.5" stroke="black" stroke-width="2" fill="none" />
<polyline points="132.0,299.5,132.5,295.5" stroke="black" stroke-width="2" fill="none" />
<polyline points="126.5,285.0,122.0,283.0,118.5,281.0,115.0,279.5,111.0,278.0,107.0,277.0,103.0,276.5" stroke="black" stroke-width="2" fill="none" />
<polyline points="103.5,279.5,114.5,283.5" stroke="black" stroke-width="2" fill="none" />
<polyline points="116.0,279.5,125.5,284.0" stroke="black" stroke-width="2" fill="none" />
<polyline points="126.5,283.0,122.5,280.0,118.5,279.0,114.5,277.5,110.5,276.5,106.5,276.5,103.0,276.0,99.0,275.5" stroke="black" stroke-width="2" fill="none" />
<polyline points="88.0,256.0,88.5,252.0,86.5,253.5,82.5,255.0,78.5,253.5" stroke="black" stroke-width="2" fill="none" />
<polyline points="77.5,250.5,75.0,254.0,78.0,250.5,82.0,250.0,86.0,250.5,90.0,250.5,92.0,254.0" stroke="black" stroke-width="2" fill="none" />
<polyline points="92.0,254.0,93.5,250.0" stroke="black" stroke-width="2" fill="none" />
<polyline points="95.0,251.0,93.5,255.5" stroke="black" stroke-width="2" fill="none" />
<polyline points="88.0,262.0,84.5,263.0,80.5,263.0,76.5,263.0" stroke="black" stroke-width="2" fill="none" />
<polyline points="75.5,261.5,79.5,260.5,84.0,261.0,88.5,259.5" stroke="black" stroke-width="2" fill="none" />
<polyline points="63.5,245.0,59.5,245.5" stroke="black" stroke-width="2" fill="none" />
<polyline points="57.0,246.5,57.0,250.0,57.0,253.5,58.0,259.5,60.0,259.0,64.5,259.5" stroke="black" stroke-width="2" fill="none" />
<polyline points="68.0,256.5,64.0,255.0,60.0,256.0,56.5,257.0,52.5,260.5,48.5,261.5,45.0,262.0,41.0,261.5,37.0,261.0,33.0,262.0,29.0,262.5" stroke="black" stroke-width="2" fill="none" />
<polyline points="22.5,275.5,27.0,276.0,31.0,276.0,35.5,275.5,39.0,275.5,43.0,275.5,47.0,275.0,51.0,275.5,55.0,275.0,59.0,275.0,63.0,274.5,67.0,274.5,71.0,274.5,75.0,273.5,79.0,273.5,83.0,273.0,86.5,270.0,89.0,264.0,86.0,268.0,83.5,273.0" stroke="black" stroke-width="2" fill="none" />
<polyline points="90.5,274.5,86.5,274.5,85.5,276.0,81.5,276.0,77.5,276.0,73.5,276.5,69.0,276.5,65.0,277.0,61.0,277.5,57.0,277.5,53.0,277.5,49.0,278.0,45.5,278.0,41.5,278.5,37.5,278.5,33.5,279.0,29.5,278.5,25.5,278.5,22.5,279.0,21.5,275.0" stroke="black" stroke-width="2" fill="none" />
<polyline points="22.0,262.0,21.5,258.0,21.0,254.0,21.0,249.5,20.5,245.5,20.0,241.5,20.0,237.0,24.0,234.0,20.0,234.5" stroke="black" stroke-width="2" fill="none" />
<polyline points="23.0,238.5,27.0,237.0,23.0,238.5,24.5,242.5,26.5,242.0,30.5,241.5,34.5,241.5,39.0,241.0,43.0,241.0,47.0,241.0,51.5,240.5,55.0,240.5,59.0,240.5,63.0,240.5,67.0,240.0,71.5,239.5,75.5,239.5,80.0,240.0,84.5,240.5,88.5,240.5,93.0,240.0,97.0,240.0,100.5,239.5,104.5,239.0,108.5,235.5,112.5,230.5" stroke="black" stroke-width="2" fill="none" />
<polyline points="113.0,229.5,109.0,233.5,106.0,237.0" stroke="black" stroke-width="2" fill="none" />
<polyline points="91.5,215.5,92.0,211.0,92.5,204.5,94.0,200.5,99.5,194.0,101.0,193.0,104.0,189.0,100.5,191.5,96.5,191.0" stroke="black" stroke-width="2" fill="none" />
<polyline points="95.5,194.0,95.0,196.0,99.0,194.5" stroke="black" stroke-width="2" fill="none" />
<polyline points="100.5,193.5,103.0,191.0,105.5,189.0,105.0,184.5,100.0,185.5,99.0,187.0" stroke="black" stroke-width="2" fill="none" />
<polyline points="108.0,186.0,112.5,181.0,110.5,180.5,110.0,185.0,108.0,189.0,110.5,187.5,108.5,191.5" stroke="black" stroke-width="2" fill="none" />
<polyline points="109.5,184.5,113.5,183.5" stroke="black" stroke-width="2" fill="none" />
<polyline points="128.0,181.0,132.5,179.5,135.5,181.5,134.5,185.5,135.0,189.5,133.5,193.5,136.5,193.0,134.0,193.5" stroke="black" stroke-width="2" fill="none" />
<polyline points="135.5,198.0,139.0,196.5" stroke="black" stroke-width="2" fill="none" />
<polyline points="134.5,192.0,135.5,187.5,136.0,183.0,129.5,182.5" stroke="black" stroke-width="2" fill="none" />
<polyline points="130.5,180.0,131.0,184.0,131.0,187.5,131.5,191.5,131.5,196.0,133.5,199.5,133.5,204.0" stroke="black" stroke-width="2" fill="none" />
<polyline points="119.5,211.0,116.0,215.0,118.5,216.0,119.5,211.5" stroke="black" stroke-width="2" fill="none" />
<polyline points="113.5,208.0,112.5,207.5,115.5,206.5,115.0,207.0,111.0,207.0,108.5,208.0,115.5,204.5,113.5,205.5,110.0,207.0,103.0,207.5,99.0,206.0,99.0,202.0,102.5,201.0,96.5,199.0" stroke="black" stroke-width="2" fill="none" />
<polyline points="92.0,202.5,97.0,200.5,98.0,204.5,104.0,205.5,106.5,209.5,103.5,213.0" stroke="black" stroke-width="2" fill="none" />
<polyline points="101.5,210.0,97.5,211.5,93.5,211.5" stroke="black" stroke-width="2" fill="none" />
<polyline points="93.0,214.0,97.0,214.5,101.0,213.5" stroke="black" stroke-width="2" fill="none" />
<polyline points="102.0,203.0,98.5,205.0,94.5,205.0" stroke="black" stroke-width="2" fill="none" />
<polyline points="90.5,197.0,91.0,200.0,90.5,196.0,91.0,200.0,86.0,201.5,85.5,205.5,81.0,209.0,84.5,214.0,85.5,218.0" stroke="black" stroke-width="2" fill="none" />
<polyline points="87.5,216.0,87.0,211.5,85.5,206.5,86.5,201.5,82.0,197.5,86.5,195.5,89.5,194.5,89.5,192.0,85.5,197.5" stroke="black" stroke-width="2" fill="none" />
<polyline points="84.0,200.0,89.5,201.0,90.5,205.5,89.0,210.5,89.0,214.0" stroke="black" stroke-width="2" fill="none" />
<polyline points="77.0,200.5,72.5,200.0" stroke="black" stroke-width="2" fill="none" />
<polyline points="72.0,197.0,72.5,192.5,77.0,191.5,76.0,194.0,75.0,195.0,73.0,196.0,76.5,202.0,75.5,208.0,76.5,212.0,80.0,212.0,82.0,213.0,80.5,213.5,82.0,218.0,84.5,219.0" stroke="black" stroke-width="2" fill="none" />
<polyline points="73.5,196.5,75.0,198.5,76.5,193.0,81.0,193.5" stroke="black" stroke-width="2" fill="none" />
<polyline points="63.0,194.0,66.5,194.0,62.0,196.0,65.0,199.0,64.0,202.5,64.5,204.5,63.5,208.5,62.0,212.5,65.0,217.0,63.0,223.0,62.0,227.0,64.5,226.0,67.0,222.5,71.0,222.5,75.0,222.5,79.0,221.5" stroke="black" stroke-width="2" fill="none" />
<polyline points="68.0,217.0,70.5,214.0,70.5,210.0,69.5,209.5,72.5,205.5,72.5,201.5,72.0,197.5,73.0,193.0,71.5,187.5,71.0,183.0,71.0,179.0,65.5,178.5" stroke="black" stroke-width="2" fill="none" />
<polyline points="60.5,173.5,62.0,168.5,58.0,169.0" stroke="black" stroke-width="2" fill="none" />
<polyline points="55.5,172.0,59.5,170.5,64.0,169.5" stroke="black" stroke-width="2" fill="none" />
<polyline points="67.0,166.0,64.5,164.0,63.0,162.5,59.0,163.5,57.5,164.5,60.5,160.5,57.5,158.0,63.0,157.0,65.0,152.0,65.5,147.5,66.5,143.5,66.5,142.0,66.5,138.0,63.0,137.5,57.5,137.0,53.5,141.5,50.0,142.0,50.5,144.5,55.5,140.0,59.0,136.0,58.5,131.0,54.5,128.0" stroke="black" stroke-width="2" fill="none" />
<polyline points="58.5,130.0,62.5,130.0,59.5,127.0,57.5,130.5,51.5,130.5,56.0,135.5,52.5,136.0,52.5,139.5,58.0,144.0,57.5,146.0,56.5,149.5,59.5,152.0,60.0,147.5,63.5,147.0,65.5,151.5,67.0,151.5,65.0,155.5,66.5,158.0,66.5,162.0,66.5,166.0,65.5,170.5,67.0,174.5,64.5,175.5,63.5,179.5,65.5,174.5,70.0,177.5,74.0,178.5,77.5,173.0,81.5,171.5,84.5,172.5,88.0,170.0,91.5,170.0,93.5,173.0,99.5,170.0,101.0,167.5,107.5,167.0,111.5,170.0,109.5,172.0,112.5,173.5,110.5,179.0,114.5,180.5,115.0,185.0,115.5,189.0,114.5,190.5,108.5,193.0,112.5,186.0,114.0,188.0" stroke="black" stroke-width="2" fill="none" />
<polyline points="104.5,170.0,107.5,168.0,105.0,168.0" stroke="black" stroke-width="2" fill="none" />
<polyline points="98.5,168.5,96.0,163.0,105.0,164.5,103.0,161.5,98.5,164.5,95.5,167.0,92.0,164.5,89.5,164.5,91.5,164.5,95.5,160.0,94.5,156.5,96.0,152.0,94.5,148.0,91.5,144.5,90.0,140.5,88.5,136.5,90.5,136.5,94.0,136.5,88.5,135.5" stroke="black" stroke-width="2" fill="none" />
<polyline points="85.5,139.5,90.0,140.0,93.0,134.0,95.0,131.0,98.0,130.5,103.0,131.0,107.0,130.5,111.0,130.5,114.5,131.0,118.5,130.5,122.5,130.0,126.5,130.5,130.5,130.5,134.5,130.5,139.0,130.5,143.0,130.5,147.0,130.0" stroke="black" stroke-width="2" fill="none" />
<polyline points="156.0,129.0,160.0,129.0,164.0,129.0,168.0,129.0,172.5,126.0" stroke="black" stroke-width="2" fill="none" />
<polyline points="178.0,120.5,178.0,122.5,177.0,126.5,175.5,130.5,181.0,133.0,183.0,135.0,185.0,130.5,186.5,133.5,192.5,134.0,194.5,133.0,196.5,132.0,204.5,128.5,208.5,128.0,210.0,132.5,214.5,133.0,217.0,134.5,217.0,139.0,219.0,141.5,221.5,149.0" stroke="black" stroke-width="2" fill="none" />
<polyline points="218.0,162.0,220.5,166.0" stroke="black" stroke-width="2" fill="none" />
<polyline points="215.5,165.0,211.5,166.0" stroke="black" stroke-width="2" fill="none" />
<polyline points="210.0,164.5,204.5,168.5,203.5,171.5,208.0,174.0,209.0,174.0,213.0,174.5,217.5,174.0" stroke="black" stroke-width="2" fill="none" />
<polyline points="226.0,173.5,226.5,175.5,228.0,170.5,225.0,173.5,224.5,177.5,224.0,181.0,222.5,185.0,222.0,190.0,226.0,185.5,228.5,174.5,229.5,174.5,228.0,178.0,227.0,181.5,225.0,185.5,221.5,189.5,220.0,193.5,218.5,198.0,217.0,202.0,215.0,206.0,214.5,211.0,213.5,215.0,214.0,216.5,217.0,220.5,218.0,224.5,217.5,228.5,217.0,232.5,214.0,236.0,211.0,239.5" stroke="black" stroke-width="2" fill="none" />
<polyline points="204.5,243.5,208.5,242.5,212.5,239.0,216.5,232.5" stroke="black" stroke-width="2" fill="none" />
<polyline points="213.5,224.5,212.5,226.5,210.0,228.5,207.5,233.5,206.5,232.0,202.5,233.0,198.5,236.0,200.5,235.5,206.5,231.5" stroke="black" stroke-width="2" fill="none" />
<polyline points="207.0,239.5,204.0,244.5,200.5,245.0" stroke="black" stroke-width="2" fill="none" />
<polyline points="202.5,250.5,201.0,255.0,198.5,259.5,194.5,263.5,190.5,267.5,187.0,271.5,191.0,268.0,195.0,264.0,199.0,259.5,203.0,252.0" stroke="black" stroke-width="2" fill="none" />
<polyline points="203.0,250.5,204.5,254.5,204.5,258.0,203.5,262.0,199.5,265.5,196.5,270.0,193.0,273.5,187.5,278.0,180.0,282.0,180.5,281.5,184.5,278.5,188.5,277.0,193.0,273.5,197.0,269.0,201.5,264.0" stroke="black" stroke-width="2" fill="none" />
<polyline points="197.0,232.5,193.0,233.0,189.0,233.0" stroke="black" stroke-width="2" fill="none" />
<polyline points="195.0,217.5,191.0,219.5,187.0,219.0,183.5,215.5,179.0,213.0" stroke="black" stroke-width="2" fill="none" />
<polyline points="179.0,215.0,184.5,219.0,190.0,223.0" stroke="black" stroke-width="2" fill="none" />
<polyline points="177.5,224.5,173.5,222.0" stroke="black" stroke-width="2" fill="none" />
<polyline points="189.0,211.5,185.5,209.5,185.5,204.0,181.5,203.0,178.0,199.5,173.5,195.5" stroke="black" stroke-width="2" fill="none" />
<polyline points="173.0,195.5,175.5,200.0,180.0,204.0,183.0,208.0,188.0,212.0" stroke="black" stroke-width="2" fill="none" />
<polyline points="187.0,208.5,192.5,212.5,194.0,218.5,194.0,221.5" stroke="black" stroke-width="2" fill="none" />
<polyline points="188.0,208.0,192.0,211.0,196.0,212.5,200.0,211.5,204.0,211.0,208.0,209.0,212.5,206.0,217.0,205.5,217.0,209.5,217.0,213.5" stroke="black" stroke-width="2" fill="none" />
<polyline points="208.0,207.0,213.0,203.0" stroke="black" stroke-width="2" fill="none" />
<polyline points="217.0,198.5,216.5,195.0,214.0,199.0,210.5,199.0,207.5,203.0,202.0,207.0" stroke="black" stroke-width="2" fill="none" />
<polyline points="202.5,195.0,197.5,195.5,194.0,194.0" stroke="black" stroke-width="2" fill="none" />
<polyline points="190.0,190.5,194.0,190.0,198.0,191.0,202.0,191.5,206.0,192.0,210.0,192.5" stroke="black" stroke-width="2" fill="none" />
<polyline points="205.5,182.0,206.0,178.0,204.5,170.5" stroke="black" stroke-width="2" fill="none" />
<polyline points="204.0,170.5,208.0,171.0,212.0,171.5,216.0,172.0" stroke="black" stroke-width="2" fill="none" />
<polyline points="215.5,170.0,211.5,169.0,207.5,169.5" stroke="black" stroke-width="2" fill="none" />
<polyline points="202.0,169.0,206.0,167.0,210.0,165.5,213.5,164.5,217.5,164.5" stroke="black" stroke-width="2" fill="none" />
<polyline points="220.5,162.5,216.5,160.0,212.5,160.0,208.5,161.0,205.0,162.5" stroke="black" stroke-width="2" fill="none" />
<polyline points="210.5,161.0,204.5,165.0,202.5,168.5,201.5,172.5,201.5,178.0,201.0,181.5,199.0,184.0,202.5,183.0" stroke="black" stroke-width="2" fill="none" />
<polyline points="197.5,183.5,193.0,182.5" stroke="black" stroke-width="2" fill="none" />
<polyline points="194.5,181.0,197.5,185.0" stroke="black" stroke-width="2" fill="none" />
<polyline points="203.0,182.0,199.0,182.5,195.0,180.5,191.0,179.5" stroke="black" stroke-width="2" fill="none" />
<polyline points="188.5,173.5,184.5,173.0" stroke="black" stroke-width="2" fill="none" />
<polyline points="179.0,169.5,183.0,167.5,187.0,167.0,190.5,167.0" stroke="black" stroke-width="2" fill="none" />
<polyline points="188.5,164.5,190.0,163.0" stroke="black" stroke-width="2" fill="none" />
<polyline points="192.0,168.5,188.0,168.5,183.5,168.0,179.5,168.5" stroke="black" stroke-width="2" fill="none" />
<polyline points="175.0,165.0,179.0,162.5,182.5,161.5,186.5,163.0,190.5,164.5" stroke="black" stroke-width="2" fill="none" />
<polyline points="192.0,159.5,188.0,158.5,183.5,158.0,179.0,158.0,175.0,161.0,175.0,162.0,179.0,158.5" stroke="black" stroke-width="2" fill="none" />
<polyline points="177.5,155.5,185.0,151.5,193.0,147.5,195.0,143.5,195.5,137.0,197.5,132.5,194.0,130.5,195.5,128.5,194.5,124.5,190.5,122.5" stroke="black" stroke-width="2" fill="none" />
<polyline points="186.5,125.0,184.5,128.5,184.0,132.5" stroke="black" stroke-width="2" fill="none" />
<polyline points="189.0,138.0,186.5,133.0,188.0,129.5,187.0,128.5,186.0,127.0,188.5,126.0,190.0,122.0,185.0,121.5,181.0,120.0" stroke="black" stroke-width="2" fill="none" />
<polyline points="183.5,123.0,179.0,125.5,175.5,129.0,170.5,134.0,167.0,137.0,166.0,137.0,166.0,133.5" stroke="black" stroke-width="2" fill="none" />
<polyline points="168.0,136.0,165.5,140.0,164.0,145.0,162.0,149.0,169.0,154.5,173.0,152.5,176.5,150.5,178.5,151.5,183.0,146.5,185.5,147.5,190.0,145.5,193.5,144.5,193.5,146.5" stroke="black" stroke-width="2" fill="none" />
<polyline points="185.5,149.0,189.5,148.0,185.5,149.5,182.0,149.5,178.0,153.0,175.5,153.0,172.5,157.0,171.0,160.5,170.5,164.0,170.0,168.0,170.0,172.0,170.5,176.0,171.5,180.5,172.0,185.0,174.0,189.0,172.5,193.0,175.5,195.0,178.0,198.5" stroke="black" stroke-width="2" fill="none" />
<polyline points="177.5,201.0,173.5,192.5" stroke="black" stroke-width="2" fill="none" />
<polyline points="172.0,196.0,172.0,200.0,170.5,204.0,171.0,208.5,168.0,209.5,168.5,214.0,170.5,218.0,171.0,220.0,173.5,221.5,175.0,225.5,179.5,226.5,181.5,228.5,182.0,232.5,186.5,235.5,188.5,236.5,191.5,240.5,192.5,243.0,194.5,244.0" stroke="black" stroke-width="2" fill="none" />
<polyline points="185.0,202.5,189.5,208.0,193.5,209.0,197.5,209.0,201.0,210.0,205.0,208.5,209.0,204.5,211.5,204.0,215.0,200.0" stroke="black" stroke-width="2" fill="none" />
<polyline points="209.5,191.5,205.5,190.5,201.0,189.5,197.0,190.5,193.0,189.5,189.0,190.5,187.5,191.0" stroke="black" stroke-width="2" fill="none" />
<polyline points="177.0,195.0,179.0,199.5,184.5,203.0,187.5,207.0,189.0,207.0,189.5,208.5" stroke="black" stroke-width="2" fill="none" />
<polyline points="169.0,187.0,164.5,182.5" stroke="black" stroke-width="2" fill="none" />
<polyline points="162.5,177.0,163.5,181.0,166.5,185.5,165.0,189.5,165.0,193.5,165.0,197.0,165.0,201.5,165.0,205.5,165.5,208.5,162.0,212.5,162.0,216.5,163.5,220.5,165.0,224.5,167.0,228.5,170.0,232.5,174.0,236.0,179.5,240.5" stroke="black" stroke-width="2" fill="none" />
<polyline points="243.0,227.0,242.5,223.5,242.5,219.5,242.5,215.5,242.5,211.5,242.5,207.5,243.0,203.0,243.0,199.0,243.0,195.0,243.0,191.0,242.5,187.0,242.5,183.0,242.0,179.0,242.0,174.5,242.0,170.5,242.0,166.5,241.5,162.5,241.5,159.0,241.5,155.5,241.5,151.5,241.5,147.5,241.5,143.5,241.5,139.5,237.5,139.0,233.0,139.0,230.0,138.5,229.0,134.5,229.0,130.5,229.0,126.0,228.5,122.0,229.0,118.0,228.5,114.0,228.5,110.0,228.5,105.5,229.5,102.0,222.0,102.5,218.0,102.5,214.0,103.5,209.5,102.5,206.0,103.0" stroke="black" stroke-width="2" fill="none" />
<polyline points="212.0,93.0,216.0,91.5,220.0,91.0,224.5,91.0,228.5,91.0,233.0,91.5,237.0,92.5,241.5,93.5,245.5,94.0" stroke="black" stroke-width="2" fill="none" />
<polyline points="244.0,91.5,240.0,90.5,236.0,89.5,232.0,89.0,228.0,88.5,223.5,88.5,219.0,89.0,215.0,89.5,210.5,91.5" stroke="black" stroke-width="2" fill="none" />
<polyline points="215.0,92.0,213.5,96.0,214.0,98.5,214.5,104.5,215.5,106.5,219.5,107.0,223.5,107.5,229.0,108.5,233.0,108.5,236.5,107.5,240.5,106.5,246.0,105.5" stroke="black" stroke-width="2" fill="none" />
<polyline points="233.5,101.5,229.0,101.5" stroke="black" stroke-width="2" fill="none" />
<polyline points="227.5,103.5,231.5,102.5,236.0,102.5,240.0,103.5" stroke="black" stroke-width="2" fill="none" />
<polyline points="237.5,101.0,233.0,99.5,229.0,98.5" stroke="black" stroke-width="2" fill="none" />
<polyline points="228.0,95.0,226.5,99.0,227.0,105.0,227.0,109.5,227.0,113.5,227.0,117.0,226.5,121.0,226.5,124.5,226.5,128.5,226.0,132.5,226.5,137.0,222.0,139.0,220.0,138.0,223.0,137.5" stroke="black" stroke-width="2" fill="none" />
<polyline points="218.0,128.0,214.0,124.5" stroke="black" stroke-width="2" fill="none" />
<polyline points="210.5,126.5,214.5,127.0,215.0,129.0,217.5,131.0,219.5,131.5,223.0,135.0" stroke="black" stroke-width="2" fill="none" />
<polyline points="211.0,136.0,212.0,132.0,206.5,132.0" stroke="black" stroke-width="2" fill="none" />
<polyline points="204.5,133.5,206.5,131.5,201.5,129.5,197.5,126.0" stroke="black" stroke-width="2" fill="none" />
<polyline points="193.5,129.5,193.0,134.0,192.0,138.0,193.5,138.5,198.5,134.0" stroke="black" stroke-width="2" fill="none" />
<polyline points="204.5,142.0,196.5,146.0,193.0,148.0,197.5,146.0,201.5,144.5,206.0,142.5,210.5,145.0,214.0,144.5,218.0,146.5,222.0,152.5,226.0,156.0" stroke="black" stroke-width="2" fill="none" />
<polyline points="238.0,153.5,237.0,157.5,237.0,162.0,237.0,166.0,237.0,170.0,237.0,174.0,237.5,178.0,237.5,182.5,238.0,186.5" stroke="black" stroke-width="2" fill="none" />
<polyline points="239.0,192.5,238.5,196.5,238.5,200.5" stroke="black" stroke-width="2" fill="none" />
<polyline points="239.5,202.5,239.5,198.5,239.0,195.0" stroke="black" stroke-width="2" fill="none" />
<polyline points="259.5,206.5,255.5,206.5,253.0,206.0,253.0,202.0,253.0,198.0,253.0,194.0,252.5,190.0,253.0,186.0,252.5,181.5,252.5,177.5,252.5,173.5,252.5,169.0,252.5,165.0,252.0,161.0,252.0,157.0,251.5,153.0,251.5,149.0,251.5,145.5,251.5,142.0,251.0,138.0,250.5,134.0,250.5,130.0,251.0,126.0,251.0,122.0,251.5,118.0,251.5,114.0,251.0,110.0,251.0,106.0,251.0,102.0,251.0,98.0,251.0,94.0,251.5,89.5,251.5,85.0,252.0,81.0,252.0,76.0,248.0,74.0,243.5,74.0,239.5,74.0,235.0,74.0,231.0,74.5,226.5,74.5,222.5,74.5,219.0,75.0,215.5,74.5,211.5,75.0,207.5,75.0" stroke="black" stroke-width="2" fill="none" />
<polyline points="205.0,76.0,205.5,80.0,205.0,83.5,204.5,87.5,204.5,91.5,205.0,95.0,204.5,99.0,211.0,100.5,215.5,101.0" stroke="black" stroke-width="2" fill="none" />
<polyline points="225.0,96.5,229.5,96.0,233.5,96.5" stroke="black" stroke-width="2" fill="none" />
<polyline points="240.0,91.5,240.5,94.0,243.0,98.5,244.0,100.5" stroke="black" stroke-width="2" fill="none" />
<polyline points="274.0,104.5,273.0,104.5,273.0,108.5,273.0,112.5,272.5,116.0,273.0,120.0,271.0,124.0" stroke="black" stroke-width="2" fill="none" />
<polyline points="264.0,135.0,263.5,139.0,264.0,143.5,264.0,147.5,264.0,151.5,264.0,155.5,264.0,159.5,264.0,163.5,264.0,167.5,263.5,171.5,263.5,175.0,263.5,179.0,264.0,183.0,263.5,186.5,263.5,190.5,263.0,194.0,263.5,198.0,263.0,201.5,263.5,205.5" stroke="black" stroke-width="2" fill="none" />
<polyline points="278.5,183.0,279.5,186.5,281.5,190.5,285.0,194.5,287.0,198.5,291.0,202.0" stroke="black" stroke-width="2" fill="none" />
<polyline points="278.0,182.0,278.0,186.0,279.0,190.0,279.5,194.5,281.0,198.5,281.0,202.5,279.0,206.0,278.5,210.5,281.0,214.5,285.5,218.5,287.0,222.5,288.5,226.0,290.0,229.5" stroke="black" stroke-width="2" fill="none" />
<polyline points="290.5,240.5,280.0,244.0,279.0,248.0" stroke="black" stroke-width="2" fill="none" />
<polyline points="224.0,177.5,224.5,174.0,224.5,170.5,224.0,166.5,223.5,163.0,222.5,159.0,222.5,153.5,218.5,149.5,216.5,146.0,218.5,142.0,219.0,136.5,216.0,131.5,213.0,130.0,209.5,126.0,207.0,122.0,207.0,118.5,207.5,115.0,207.5,111.0,207.0,107.0,205.0,103.5,200.5,103.0,196.5,103.0,192.5,103.0,188.5,102.5,184.5,102.5,181.0,102.5,176.5,102.5,173.0,102.5,169.0,102.5,165.0,102.5" stroke="black" stroke-width="2" fill="none" />
<polyline points="162.5,99.0,166.5,99.0,170.5,99.5,174.5,99.5,178.0,99.0,182.0,98.5,186.0,98.5,189.5,98.0,193.5,97.5,197.5,97.0,201.5,97.0" stroke="black" stroke-width="2" fill="none" />
<polyline points="182.5,124.0,178.0,131.0,178.0,135.0,178.5,140.5,175.0,141.5,179.0,139.5,183.0,139.0,188.0,143.0" stroke="black" stroke-width="2" fill="none" />
<polyline points="204.5,143.5,208.0,143.0" stroke="black" stroke-width="2" fill="none" />
<polyline points="191.0,148.5,187.5,148.5,183.5,151.0,180.0,153.0,176.5,156.0" stroke="black" stroke-width="2" fill="none" />
<polyline points="170.0,157.5,171.5,153.5,171.0,148.5" stroke="black" stroke-width="2" fill="none" />
<polyline points="171.5,136.5,168.5,140.5,169.0,138.5,173.0,137.5,176.0,136.0" stroke="black" stroke-width="2" fill="none" />
<polyline points="171.0,136.0,175.0,135.5,177.0,138.0,178.0,130.0" stroke="black" stroke-width="2" fill="none" />
<polyline points="182.5,125.0,178.0,129.0,180.0,128.5,184.0,126.0,188.0,129.5,192.0,129.5" stroke="black" stroke-width="2" fill="none" />
<polyline points="221.0,135.5,217.0,134.0,214.5,134.5,213.0,130.0,211.0,128.5,208.5,127.5,206.0,123.5,203.0,122.5,204.5,118.5,204.5,114.5,204.5,110.5,204.0,106.5,206.5,100.5,206.0,96.0,206.5,92.0,207.0,88.0,207.5,83.5,207.5,79.5,207.5,75.5,202.5,74.5,198.5,74.0,195.0,73.5,191.0,73.5,187.5,73.5,183.5,73.5,179.0,73.5,174.5,73.5,170.0,73.5,165.5,73.5,161.5,73.5" stroke="black" stroke-width="2" fill="none" />
<polyline points="163.0,73.0,162.5,77.0,162.0,81.0,162.0,84.5,162.0,88.5,162.0,92.5,162.5,96.5,163.5,103.0,164.0,106.5,164.0,110.5,164.0,114.0,164.0,118.5,164.0,122.0,164.0,126.0" stroke="black" stroke-width="2" fill="none" />
<polyline points="157.5,132.0,161.5,133.5,165.0,133.0,168.5,133.5,172.5,132.0,171.5,133.0,168.0,135.0,165.5,138.5,168.5,141.0,168.0,146.0,170.5,146.5,169.0,150.5,166.5,154.5,168.0,159.0,168.5,162.0,168.0,166.5,166.0,169.0,167.0,173.0,169.5,177.5,171.0,181.5,171.0,185.5" stroke="black" stroke-width="2" fill="none" />
<polyline points="169.0,178.0,165.0,172.5" stroke="black" stroke-width="2" fill="none" />
<polyline points="161.0,170.5,165.5,168.5,161.5,171.0,162.5,174.5,161.5,178.5,161.5,182.5,161.5,186.0,161.5,190.0,161.5,193.5,161.5,197.5,161.5,201.5,161.5,206.0,158.5,210.5" stroke="black" stroke-width="2" fill="none" />
<polyline points="157.0,208.0,157.0,204.0,157.0,200.5,157.0,196.5,156.5,193.0,156.5,189.0,156.0,186.0,156.0,182.5,156.5,178.5,157.0,174.5" stroke="black" stroke-width="2" fill="none" />
<polyline points="148.0,168.5,147.5,172.5,148.0,177.0,148.0,181.0,148.5,185.0,148.5,188.5,149.5,192.5,149.5,196.5,149.5,201.0,149.5,205.5,149.0,209.5,149.5,213.5,140.0,217.0,140.0,217.0,144.0,215.0,148.5,213.5" stroke="black" stroke-width="2" fill="none" />
<polyline points="102.0,209.0,98.5,208.0,95.0,206.0,91.0,206.5,85.5,207.0,81.5,210.0,77.5,211.0,73.5,211.5,71.5,214.0,71.5,210.5,72.5,206.5,68.0,207.5,67.5,203.0,68.5,198.0,69.0,194.0,69.0,186.5,68.0,182.5,68.0,179.5,71.0,176.5,70.5,172.5,70.0,168.0,70.0,163.5,70.5,159.0,69.5,157.0,69.5,153.0,69.5,148.5,69.5,144.5,69.5,140.5,69.0,136.5,69.0,132.5,68.5,129.0,69.0,125.0,65.0,123.5,61.0,123.5,57.0,123.5,53.5,123.5,49.5,123.0" stroke="black" stroke-width="2" fill="none" />
<polyline points="48.0,123.5,47.0,127.5,47.5,132.0,47.5,136.0,47.5,139.5,47.5,143.5,47.5,147.5,47.5,151.5,47.5,155.5,47.5,159.5,47.5,163.5,47.5,167.5,48.0,172.0,48.0,176.0,48.5,180.0,48.5,184.0,49.5,188.0,49.5,192.5,50.0,196.5,50.0,200.5,50.0,204.5,51.0,207.0,55.5,205.5,55.5,201.5,60.0,203.5,60.5,200.5,64.5,198.5,65.5,198.0" stroke="black" stroke-width="2" fill="none" />
<polyline points="57.5,209.5,61.5,210.5,68.0,207.5,74.0,208.5,78.0,207.5,83.0,208.0,87.0,210.5" stroke="black" stroke-width="2" fill="none" />
<polyline points="82.0,215.5,78.0,214.0,74.5,213.5,68.5,215.0,65.5,211.5,62.0,211.0,58.0,211.0" stroke="black" stroke-width="2" fill="none" />
<polyline points="52.5,214.0,51.5,218.5" stroke="black" stroke-width="2" fill="none" />
<polyline points="52.5,215.5,57.0,215.5,61.5,215.5,62.0,219.5,67.5,226.0,68.5,226.0,72.0,226.5,74.0,223.5,78.0,223.5" stroke="black" stroke-width="2" fill="none" />
<polyline points="76.5,204.5,75.0,204.5,74.5,207.0,68.5,203.0,64.5,205.0,63.5,209.5,59.5,208.5,58.0,207.0,56.5,207.5,55.0,203.0,55.5,200.5,52.0,206.0,52.0,201.5,52.5,198.0,52.0,194.0,51.5,189.5,51.0,185.5,51.5,181.5,51.5,177.0,51.0,173.5,50.0,169.5,52.0,166.0,56.0,162.0,55.5,158.0,57.0,155.0,60.5,151.0,60.5,146.5,58.5,144.5,62.0,140.5,60.5,139.5,66.0,137.0,61.0,135.0,63.5,135.5,65.5,131.5,66.5,127.5,61.5,125.5,57.5,125.0,53.5,127.0,49.5,128.5" stroke="black" stroke-width="2" fill="none" />
<polyline points="49.0,126.0,48.0,127.0,48.5,131.0,48.5,134.5,49.0,138.5,50.0,143.0,49.0,147.0,49.0,151.0,50.0,155.0,51.5,157.5,50.0,161.5,52.0,159.0,56.0,157.5,60.0,156.0,63.5,156.5" stroke="black" stroke-width="2" fill="none" />
<polyline points="61.0,152.5,64.5,149.5" stroke="black" stroke-width="2" fill="none" />
<polyline points="70.0,149.0,74.0,148.5" stroke="black" stroke-width="2" fill="none" />
<polyline points="72.0,150.0,74.0,151.0,72.5,155.0,78.0,158.0,74.5,161.5,74.5,163.5,72.5,168.0,75.5,171.0,74.0,172.0,77.5,169.0,79.5,167.0,83.5,162.0" stroke="black" stroke-width="2" fill="none" />
<polyline points="87.0,168.0,91.0,169.0,95.0,168.5,99.0,166.5" stroke="black" stroke-width="2" fill="none" />
<polyline points="91.5,172.5,91.0,174.0,89.0,178.0,90.5,176.0,92.5,174.5" stroke="black" stroke-width="2" fill="none" />
<polyline points="78.5,173.5,75.5,177.5,77.5,179.5,74.5,181.5,77.0,180.0" stroke="black" stroke-width="2" fill="none" />
<polyline points="73.5,160.5,77.5,160.0,81.5,158.5" stroke="black" stroke-width="2" fill="none" />
<polyline points="84.5,151.5,80.5,147.5" stroke="black" stroke-width="2" fill="none" />
<polyline points="81.5,148.5,81.0,153.0" stroke="black" stroke-width="2" fill="none" />
<polyline points="86.0,153.0,81.5,155.5,79.5,151.5,78.0,150.0,77.5,148.0,79.5,146.5,82.5,143.0,80.0,141.5,80.5,137.0,76.5,138.5" stroke="black" stroke-width="2" fill="none" />
<polyline points="79.5,139.5,83.5,139.5,87.5,140.0,87.5,143.5" stroke="black" stroke-width="2" fill="none" />
<polyline points="82.0,147.0,85.0,151.0,82.0,155.5,83.0,156.0,82.5,158.5,82.5,155.0" stroke="black" stroke-width="2" fill="none" />
<polyline points="78.0,152.5,74.5,153.5" stroke="black" stroke-width="2" fill="none" />
<polyline points="79.0,159.0,75.0,159.5,74.5,157.5,70.0,159.5" stroke="black" stroke-width="2" fill="none" />
<polyline points="71.0,146.5,75.0,146.0" stroke="black" stroke-width="2" fill="none" />
<polyline points="71.0,141.0,72.0,139.0,76.0,138.5,79.5,135.0,78.0,139.0,76.5,142.5,77.5,146.5,72.5,147.0,74.5,150.5,78.0,153.5,81.0,158.5,81.0,158.0,85.0,156.0,89.5,158.5,93.5,159.0,96.5,159.0,98.0,155.5,99.5,154.0,105.5,154.0,107.0,154.5,112.0,147.5,112.5,149.5,116.0,152.5,118.0,157.0,119.5,156.5,124.5,154.0" stroke="black" stroke-width="2" fill="none" />
<polyline points="124.5,148.0,127.5,145.0,129.0,149.0,131.5,150.0,131.5,147.5" stroke="black" stroke-width="2" fill="none" />
<polyline points="129.0,146.0,123.0,145.5,121.0,148.0" stroke="black" stroke-width="2" fill="none" />
<polyline points="116.0,149.5,113.5,153.5,115.5,151.5" stroke="black" stroke-width="2" fill="none" />
<polyline points="114.0,148.0,112.5,150.0,113.0,156.5,114.0,159.5,115.0,163.5,116.0,158.0,116.0,159.0,115.5,163.0" stroke="black" stroke-width="2" fill="none" />
<polyline points="101.0,160.0,103.0,158.0,104.0,153.5" stroke="black" stroke-width="2" fill="none" />
<polyline points="110.5,143.0,106.5,135.5" stroke="black" stroke-width="2" fill="none" />
<polyline points="108.0,135.0,112.0,132.0,113.0,134.0,109.5,138.0,111.5,135.0,115.5,135.0,119.5,135.0,123.0,131.0,129.5,131.5,135.0,131.5,134.5,136.0,134.0,136.0,129.5,137.0,131.0,135.5,126.5,137.0,128.0,139.5,129.0,138.0,133.0,137.0,135.5,138.5,135.0,142.5,135.0,146.5,135.0,150.5,134.5,154.5" stroke="black" stroke-width="2" fill="none" />
<polyline points="121.0,138.5,117.0,136.0" stroke="black" stroke-width="2" fill="none" />
<polyline points="115.5,137.5,119.5,140.5,126.0,138.5" stroke="black" stroke-width="2" fill="none" />
<polyline points="126.0,133.5,123.0,137.5,124.5,134.5,126.5,136.5,130.0,132.5" stroke="black" stroke-width="2" fill="none" />
<polyline points="115.0,133.0,115.0,137.5,120.5,138.0,117.5,142.5,120.5,147.0,121.0,151.5,120.5,155.5,120.5,160.0,122.0,163.0,122.0,163.0" stroke="black" stroke-width="2" fill="none" />
<polyline points="94.5,149.0,90.5,144.0,88.0,146.5,85.0,147.0,85.5,145.0,83.5,142.5,79.5,142.5,76.0,144.5,74.5,144.0,74.0,146.5,70.0,143.5,73.5,140.0,74.0,137.0,70.0,136.5" stroke="black" stroke-width="2" fill="none" />
<polyline points="70.0,135.5,74.0,132.0" stroke="black" stroke-width="2" fill="none" />
<polyline points="70.0,124.5,73.5,124.5,77.5,124.5,81.5,125.0,85.5,128.0,90.0,129.0,94.0,127.5,98.0,127.5,102.0,127.5,106.0,127.5,110.0,127.5,114.0,127.0,117.5,127.0,121.5,127.0,125.0,127.0,129.0,127.0,133.0,127.0,137.0,127.5,140.5,127.5,144.0,128.0,150.5,127.5" stroke="black" stroke-width="2" fill="none" />
<polyline points="149.0,119.5,149.0,123.0,149.5,127.0,147.5,130.5,148.0,134.5,148.0,138.5,148.0,141.5,148.0,145.5,147.5,149.0" stroke="black" stroke-width="2" fill="none" />
<polyline points="170.0,163.5,169.5,167.5,169.0,171.5" stroke="black" stroke-width="2" fill="none" />
<polyline points="157.0,157.5,157.0,154.0,157.0,150.5,156.5,147.0,156.0,143.0,156.0,139.5,156.0,136.0,156.0,132.5,155.5,128.5,155.5,124.5,155.5,120.5" stroke="black" stroke-width="2" fill="none" />
<polyline points="154.5,119.5,154.0,123.0,154.0,127.0,152.5,130.5,153.0,134.0,153.0,138.0,153.0,142.0" stroke="black" stroke-width="2" fill="none" />
<polyline points="154.5,166.0,154.0,162.5,154.0,158.5,153.5,154.5,153.5,150.5,154.0,146.5,153.5,142.5,154.0,138.0,154.0,134.0,154.5,130.0,151.0,129.5,148.0,125.5,148.0,121.5,147.5,117.5" stroke="black" stroke-width="2" fill="none" />
<polyline points="152.5,116.0,152.5,120.0,152.0,124.5,148.0,126.5,149.0,129.5,149.0,133.5,149.0,137.5,148.5,142.0,149.5,146.0" stroke="black" stroke-width="2" fill="none" />
<polyline points="114.5,156.0,113.0,159.0,109.5,161.5,106.5,158.0,105.5,160.0,99.5,159.5,95.5,159.0,91.5,159.5,87.0,159.5,83.5,160.5,85.0,162.5,84.0,162.0,81.5,160.5,86.0,158.0,85.0,151.0,84.5,149.0,82.0,142.5,81.0,138.5" stroke="black" stroke-width="2" fill="none" />
<polyline points="95.5,136.5,99.5,134.0,103.0,133.0" stroke="black" stroke-width="2" fill="none" />
<polyline points="109.0,133.0,107.5,133.0,107.5,137.0,110.0,141.0,110.0,145.0,110.0,150.0,105.5,152.0,105.5,156.5,105.5,160.0,106.0,164.0,102.5,167.0,101.0,170.0,98.5,168.0,96.0,170.0" stroke="black" stroke-width="2" fill="none" />
<polyline points="63.0,167.0,57.5,167.0,53.5,166.5" stroke="black" stroke-width="2" fill="none" />
<polyline points="58.0,160.0,54.0,164.0,51.5,160.0,53.5,158.5,52.0,153.5,49.0,155.5" stroke="black" stroke-width="2" fill="none" />
<polyline points="51.0,149.5,54.5,148.0,56.0,144.5,58.5,142.5,62.0,143.5,63.5,146.0" stroke="black" stroke-width="2" fill="none" />
<polyline points="64.0,133.0,60.0,132.0" stroke="black" stroke-width="2" fill="none" />
<polyline points="63.0,135.0,58.5,135.5,53.5,135.5,52.0,138.0,54.5,137.5,55.0,132.0,58.0,130.0,55.5,131.0,51.0,132.0" stroke="black" stroke-width="2" fill="none" />
<polyline points="38.0,129.5,36.0,132.5,38.0,128.5" stroke="black" stroke-width="2" fill="none" />
<polyline points="35.5,128.0,37.0,132.0,38.5,131.0" stroke="black" stroke-width="2" fill="none" />
<polyline points="33.0,128.0,37.5,127.5,40.5,129.0,41.0,133.0,41.5,137.0,37.5,137.0,37.5,141.0,39.5,141.5,40.0,147.0,37.0,148.0,38.5,152.0,37.5,156.0,40.5,159.5,42.5,166.0,43.0,170.0" stroke="black" stroke-width="2" fill="none" />
<polyline points="35.0,173.5,35.0,169.5,34.0,165.5,34.0,162.0,35.0,158.0" stroke="black" stroke-width="2" fill="none" />
<polyline points="36.5,156.5,40.0,155.5,41.0,158.0" stroke="black" stroke-width="2" fill="none" />
<polyline points="39.0,152.0,42.5,150.5,41.0,146.5,35.5,145.0" stroke="black" stroke-width="2" fill="none" />
<polyline points="34.0,136.5,38.5,135.0,41.5,140.0,41.5,144.5,42.5,148.5,40.5,155.5,43.5,157.0,43.5,161.0,39.5,165.5,43.5,164.0" stroke="black" stroke-width="2" fill="none" />
<polyline points="28.0,166.0,24.5,165.0" stroke="black" stroke-width="2" fill="none" />
<polyline points="26.5,165.0,22.5,165.5" stroke="black" stroke-width="2" fill="none" />
<polyline points="22.0,166.5,26.0,167.0" stroke="black" stroke-width="2" fill="none" />
<polyline points="27.0,170.0,23.0,169.0" stroke="black" stroke-width="2" fill="none" />
<polyline points="28.0,189.5,30.0,185.5,33.0,188.0,31.0,192.0,33.5,193.0,31.0,197.0,29.0,201.0,31.0,206.5,29.5,205.5,33.0,205.0,39.0,200.0,38.5,198.0,40.5,195.0,44.5,197.0,44.0,201.0,44.5,204.5" stroke="black" stroke-width="2" fill="none" />
<polyline points="44.0,207.5,38.0,205.5,32.0,209.5,32.0,210.5,31.0,205.5,31.5,203.0,31.0,201.5,33.5,198.5,32.0,191.5" stroke="black" stroke-width="2" fill="none" />
<polyline points="28.5,191.0,29.0,190.0,29.0,192.5,30.5,192.5,28.0,197.5,28.5,200.0,30.0,203.0" stroke="black" stroke-width="2" fill="none" />
<polyline points="25.5,209.5,21.0,205.5" stroke="black" stroke-width="2" fill="none" />
<polyline points="20.5,207.0,25.0,210.5,29.5,212.0,33.5,212.0" stroke="black" stroke-width="2" fill="none" />
<polyline points="34.5,218.5,30.5,219.0" stroke="black" stroke-width="2" fill="none" />
<polyline points="25.5,216.5,22.0,220.5,24.0,222.0,25.0,217.5,29.0,216.0,33.0,216.0,37.5,216.5" stroke="black" stroke-width="2" fill="none" />
<polyline points="32.5,225.0,29.0,222.0,25.0,222.5" stroke="black" stroke-width="2" fill="none" />
<polyline points="21.0,224.0,20.0,228.0" stroke="black" stroke-width="2" fill="none" />
<polyline points="20.5,229.5,24.0,229.5,28.0,229.5,32.0,229.5,36.5,229.5,40.0,229.0,44.0,229.0,48.5,229.0,52.5,229.0,56.5,229.0,60.0,229.0,64.0,228.5,68.5,227.0,72.0,227.0,76.0,227.0,80.0,227.0,84.0,226.0,88.0,226.5,92.0,226.5,96.5,226.5,100.5,226.0,104.5,226.0,108.5,226.0,112.5,225.5,116.5,225.5,120.5,223.5,125.0,223.0,128.5,221.5,133.0,220.5,130.0,222.0,120.0,226.0" stroke="black" stroke-width="2" fill="none" />
<polyline points="112.0,227.5,108.0,228.0,101.5,228.5,97.5,228.5,93.5,228.5,90.0,228.5,86.5,228.5,82.5,228.5,79.0,228.0,75.0,228.5,71.5,229.0,67.0,228.0,63.0,228.0,58.5,228.0,54.0,228.0,50.0,228.0,45.5,228.5,41.5,228.5,37.5,228.5,33.5,228.5,29.0,228.5,25.0,229.5,21.0,229.5" stroke="black" stroke-width="2" fill="none" />
<polyline points="7.0,230.0,3.0,230.0" stroke="black" stroke-width="2" fill="none" />
<polyline points="3.0,226.5,3.0,230.5,3.5,235.5,6.0,232.0,10.0,231.5,11.5,228.0" stroke="black" stroke-width="2" fill="none" />
<polyline points="3.5,234.5,7.5,235.0,11.5,235.0,13.0,237.5,13.0,241.5,13.0,245.5,13.5,249.5,14.0,253.5,14.5,257.5,14.5,261.5" stroke="black" stroke-width="2" fill="none" />
<polyline points="10.0,256.0,6.0,256.5,2.0,257.0" stroke="black" stroke-width="2" fill="none" />
<polyline points="1.5,276.0,5.5,276.0,9.0,276.0,13.0,276.0" stroke="black" stroke-width="2" fill="none" />
<polyline points="12.5,279.5,8.5,280.0,5.0,280.0,1.5,280.0" stroke="black" stroke-width="2" fill="none" />
<polyline points="1.5,286.5,5.5,286.0,9.5,286.0,13.5,285.5,18.0,285.0,22.0,285.0,26.0,284.5,30.5,284.5,35.0,283.5,39.0,283.5,42.5,283.5,46.5,283.5,51.0,283.5,55.0,283.5,59.0,283.0,63.0,282.5,67.0,282.5,71.0,282.0,75.5,282.0,79.5,282.0,84.0,281.0,87.5,281.5,91.0,280.5,94.0,280.5,98.0,278.5,101.5,277.5,105.5,278.5,109.0,280.0,112.5,281.5,116.5,283.0,120.5,284.0,124.5,285.0,128.5,286.5" stroke="black" stroke-width="2" fill="none" />
<polyline points="122.0,279.5,129.5,283.5,134.0,289.0,134.5,293.5,131.5,298.0,131.0,301.0,126.5,304.5" stroke="black" stroke-width="2" fill="none" />
<polyline points="114.0,309.5,108.0,313.0,101.5,316.5,98.0,320.5,95.0,324.5,99.5,321.5,103.5,318.5,107.5,315.5,111.5,313.5,115.0,311.5,119.0,310.0,123.5,308.5,127.5,306.5,131.5,304.5,135.5,302.0,139.0,299.0,143.0,295.5,146.5,291.5,150.0,288.0,154.0,283.5,158.0,279.0,162.0,274.5,166.5,269.0,171.0,265.5,175.0,262.0,179.0,259.0,183.0,256.5,186.5,255.0,190.5,252.0,194.5,246.0" stroke="black" stroke-width="2" fill="none" />
<polyline points="240.0,186.5,240.0,183.0,240.0,179.5,240.0,175.5,240.0,171.5,239.5,167.5,239.0,164.0,239.5,160.0,239.0,156.0" stroke="black" stroke-width="2" fill="none" />
<polyline points="238.0,148.5,237.5,144.5" stroke="black" stroke-width="2" fill="none" />
<polyline points="237.5,145.5,237.5,149.5" stroke="black" stroke-width="2" fill="none" />
<polyline points="278.5,139.0,282.0,143.0,283.0,147.0,285.5,147.0,280.0,152.5,282.5,151.5,287.0,149.5,291.0,150.5,295.0,151.5,299.0,153.0,303.0,155.5,307.0,153.5,310.5,152.0,314.5,151.0,318.5,150.5,322.5,153.0" stroke="black" stroke-width="2" fill="none" />
<polyline points="317.5,158.5,313.5,159.0,309.5,159.0,306.0,156.5,310.5,152.5" stroke="black" stroke-width="2" fill="none" />
<polyline points="309.0,161.5,314.5,164.5,315.0,163.0" stroke="black" stroke-width="2" fill="none" />
<polyline points="327.0,174.0,324.0,171.5,324.5,167.5,325.5,163.5,326.0,160.0,326.5,155.5,326.0,151.0,324.5,147.0,324.0,143.0" stroke="black" stroke-width="2" fill="none" />
<polyline points="323.5,142.0,320.0,145.5,316.0,145.5,321.0,145.0" stroke="black" stroke-width="2" fill="none" />
<polyline points="321.5,139.0,317.0,143.0,316.0,144.5,319.0,141.0,321.5,137.0" stroke="black" stroke-width="2" fill="none" />
<polyline points="330.0,124.0,326.0,116.5,322.0,112.5,318.0,110.0" stroke="black" stroke-width="2" fill="none" />
<polyline points="317.5,110.0,322.5,114.0,326.0,118.5,327.5,122.5,329.0,127.0,329.0,131.0,329.5,135.0,329.5,139.0,329.5,143.0,328.5,146.5,328.0,150.5,327.0,154.5,326.5,158.5,327.0,163.0,326.0,167.5,325.5,171.0,323.5,175.0,322.5,179.0,321.0,183.0,320.0,187.0,320.0,191.0,320.0,195.0,320.0,199.0,319.0,203.5,317.5,207.5,317.5,210.0,314.5,216.0,312.0,220.5,310.0,224.5,309.0,229.0,307.0,233.0,304.0,235.0,305.0,240.0" stroke="black" stroke-width="2" fill="none" />
<polyline points="381.0,286.5,389.5,283.0,394.5,279.0,399.5,275.0,403.5,271.5,402.5,267.5,400.5,263.5,399.0,259.0,397.5,254.5,395.5,250.5,393.5,246.0,392.0,242.0,390.0,238.5,388.5,234.5,387.5,230.0,387.5,226.0,387.5,222.5,387.5,218.5,388.0,214.5,387.5,211.0,387.5,207.0,387.5,203.0,387.5,199.0,387.0,195.5,387.0,191.5,387.5,187.5" stroke="black" stroke-width="2" fill="none" />
<polyline points="428.5,176.0,433.0,177.5" stroke="black" stroke-width="2" fill="none" />
<polyline points="429.5,177.0,434.5,181.5,433.5,186.0,433.0,190.0,430.5,193.0,430.0,194.5,431.5,196.0" stroke="black" stroke-width="2" fill="none" />
<polyline points="451.0,110.0,451.5,106.0,452.0,102.0,452.0,98.0,452.5,93.5,452.5,89.5,452.5,85.5,449.0,85.5" stroke="black" stroke-width="2" fill="none" />
<polyline points="447.0,87.0,447.0,91.0,447.0,95.0,446.0,99.5,446.0,103.5,446.0,107.5,446.0,111.0,445.5,114.5,445.0,118.0" stroke="black" stroke-width="2" fill="none" />
<polyline points="475.0,19.0,474.5,23.0,474.5,27.5,474.0,31.5,474.0,36.0,474.0,40.0,473.5,44.0,474.0,48.0,474.0,52.0,474.5,55.5,474.0,60.0,474.0,63.5,473.5,67.0,473.0,71.0,472.5,74.5,471.5,78.5,471.5,82.5,472.0,87.0,472.0,91.0,472.5,95.0,472.5,99.0,472.0,103.0,471.5,107.0,471.5,111.0,471.5,115.0,471.5,119.5,471.5,123.0,471.5,127.0,471.0,131.0,470.5,135.0,471.0,139.0,471.0,143.0,471.0,147.0,470.5,151.0,470.5,155.5,470.0,160.0,469.5,164.0,469.5,168.0,469.5,172.0,469.5,176.5,469.0,180.0,468.5,184.0,469.0,188.5,469.0,192.5,469.0,197.0,469.0,201.0,469.0,204.5,468.5,208.0,468.0,211.5,468.0,215.5,468.0,219.5,468.0,223.0,468.5,227.0,468.5,231.0,469.0,234.5,469.0,238.5,469.0,242.5,469.5,247.0,469.5,251.5,469.5,255.0,469.5,259.0,469.5,263.0,469.0,267.0,469.0,271.0,468.5,274.5,468.5,278.0,468.5,282.5,469.0,287.0,469.0,291.0,469.0,295.5,469.0,299.0,469.0,303.5,469.0,307.5,469.0,311.5,469.0,315.5,469.5,319.5,468.5,323.5,468.0,328.0,468.0,332.0,468.0,336.0,468.0,340.0,468.5,344.0,468.0,347.5,468.0,351.5,468.0,356.0,468.5,359.5,469.0,364.5,471.0,366.0,475.0,365.0,479.0,365.0,483.0,364.5,487.5,363.5,491.0,363.0,495.0,367.0,498.5,371.0,502.5,373.5,506.5,376.0,511.0,378.0" stroke="black" stroke-width="2" fill="none" />
<polyline points="339.0,196.5,339.0,192.5,339.0,188.5,339.0,184.5,338.5,180.5,338.0,176.5,337.5,172.5,337.5,168.5,337.5,164.5,337.5,160.0,337.0,155.5,336.5,151.5,336.5,147.5,336.0,144.0,336.5,140.0,337.0,135.5,337.0,131.5,337.5,128.0,337.5,124.5,337.5,120.5,337.5,117.0,337.5,113.5,337.5,109.5,337.5,105.5" stroke="black" stroke-width="2" fill="none" />
<polyline points="311.5,107.0,307.5,106.5,303.5,106.5,299.5,106.5" stroke="black" stroke-width="2" fill="none" />
<polyline points="298.0,117.5,294.0,117.5" stroke="black" stroke-width="2" fill="none" />
<polyline points="288.5,115.5,284.5,116.0" stroke="black" stroke-width="2" fill="none" />
<polyline points="279.0,136.5,283.0,140.5" stroke="black" stroke-width="2" fill="none" />
<polyline points="279.5,109.0,278.0,105.0,279.0,100.5,279.0,96.5,276.5,92.0,274.5,90.5,278.5,85.5,281.0,82.0,281.0,78.0" stroke="black" stroke-width="2" fill="none" />
<polyline points="266.5,76.5,266.5,80.5,267.0,84.5,267.0,88.5,267.0,92.5,267.0,96.5,266.0,100.5,266.0,105.0,266.0,109.0,266.0,112.5,266.5,116.5,266.0,123.5,266.5,128.0,266.5,132.0,266.5,136.0,266.5,140.0,266.0,144.0,266.5,148.0,268.0,151.5,266.0,155.5,266.5,159.0,266.5,163.0,267.5,167.0,265.5,170.5,265.5,174.5,265.5,178.0,265.5,182.0,265.5,185.5,265.5,189.5,266.0,193.5,265.5,197.5,265.5,202.0,266.0,206.0,265.5,212.5,260.5,216.5,254.5,220.5,254.5,221.0,258.5,219.0,262.0,216.5,266.0,213.5" stroke="black" stroke-width="2" fill="none" />
<polyline points="278.5,84.0,275.0,90.0,273.5,89.0,274.0,85.0,274.0,81.0,274.0,77.5,274.0,73.5,274.0,69.5,274.0,65.5,274.5,61.0" stroke="black" stroke-width="2" fill="none" />
<polyline points="344.5,1.0,344.5,5.5,344.5,10.0,344.5,14.0,344.5,18.0,345.5,20.0,349.5,16.0,353.5,12.0,357.5,8.0,361.0,4.5" stroke="black" stroke-width="2" fill="none" />
<polyline points="391.0,2.0,391.0,6.0,391.0,9.5,391.0,13.5,390.5,17.0,390.5,21.0,390.5,25.0,390.5,29.5,390.5,33.5,391.0,38.0,391.0,42.0,390.5,46.0,390.0,50.0,390.5,54.5,391.0,58.5,391.0,62.5,390.5,66.5,390.5,70.5,390.0,74.5,389.5,78.5,389.0,82.5,389.0,86.5,389.0,90.5,389.5,94.5,388.5,98.5,388.5,102.0,388.5,105.5,388.5,109.0,388.5,112.5,388.5,116.5" stroke="black" stroke-width="2" fill="none" />
<polyline points="439.5,4.5,435.5,7.0,432.0,9.5,428.5,12.0,424.5,14.5,420.5,17.5,416.5,20.0,412.5,22.5,408.5,25.5,413.0,22.0,418.5,18.0,425.0,14.0,430.5,10.0,436.5,6.0,442.5,1.5" stroke="black" stroke-width="2" fill="none" />
<polyline points="54.5,181.0,53.0,185.0" stroke="black" stroke-width="2" fill="none" />
<polyline points="42.5,189.0,40.5,188.5,40.0,191.5,36.5,189.5" stroke="black" stroke-width="2" fill="none" />
<polyline points="36.5,195.5,35.5,197.0,35.5,200.5,35.5,204.5,36.0,208.0,38.5,210.0,36.5,213.5" stroke="black" stroke-width="2" fill="none" />
<polyline points="44.5,209.0,45.5,206.0,42.5,208.5,41.5,204.5,41.5,202.5,43.0,198.5,41.0,196.5,45.5,193.0,40.0,193.5,37.0,190.5,37.0,186.5,34.5,185.0,34.0,181.0,33.5,177.0,33.5,172.5,33.0,168.5,33.0,164.0,32.5,160.5,35.5,158.5,35.0,154.5,35.0,150.5,34.5,146.5,34.0,143.0,33.5,139.0,33.0,135.5,33.0,132.0,33.0,128.5,27.0,130.0,23.0,129.0" stroke="black" stroke-width="2" fill="none" />
<polyline points="24.0,126.5,28.0,126.5" stroke="black" stroke-width="2" fill="none" />
<polyline points="24.5,130.0,24.0,133.5,21.5,129.0,17.0,129.5" stroke="black" stroke-width="2" fill="none" />
<polyline points="15.5,124.5,15.5,128.5,16.5,132.5,17.0,136.5,17.5,140.5,17.5,144.5,18.0,149.0,18.5,153.0,18.5,157.0,19.0,161.0,19.0,165.0,18.5,169.5,18.5,173.5,18.5,177.5,19.5,181.5,19.5,186.0,19.0,190.0,18.5,194.0,18.5,198.0,18.5,201.5,18.5,205.5,18.5,209.5,19.0,213.0,21.0,214.0,21.0,211.5,25.0,213.0,28.5,213.0,35.5,212.0,37.0,205.5" stroke="black" stroke-width="2" fill="none" />
<polyline points="44.0,192.5,39.5,194.0,32.5,197.0,31.5,197.5,29.0,198.0,26.5,194.0,22.5,199.0,25.0,196.0,24.0,194.0,25.5,190.0,27.0,188.5,23.0,196.0" stroke="black" stroke-width="2" fill="none" />
<polyline points="12.5,198.5,11.5,198.5,11.0,202.5" stroke="black" stroke-width="2" fill="none" />
<polyline points="29.5,162.0,30.0,158.5,28.5,158.0,25.5,159.5,24.5,161.5,27.5,157.5,31.0,152.5,30.5,148.0,28.0,143.0,30.5,139.0,28.0,139.0,24.5,140.5,25.5,139.5,31.5,139.0,31.5,135.5,31.5,131.5,28.5,125.0,24.5,124.5,20.5,123.5,16.5,123.5" stroke="black" stroke-width="2" fill="none" />
<polyline points="10.0,123.5,9.0,127.5,4.5,133.0,5.0,137.0,5.5,140.5,3.0,142.0,3.0,146.5,3.0,150.5" stroke="black" stroke-width="2" fill="none" />
<polyline points="3.0,158.5,2.5,162.5" stroke="black" stroke-width="2" fill="none" />
<polyline points="6.0,149.5,6.0,146.0,6.0,142.5" stroke="black" stroke-width="2" fill="none" />
<polyline points="17.0,142.0,21.5,143.5,25.5,143.5,30.0,141.5" stroke="black" stroke-width="2" fill="none" />
<polyline points="28.0,145.5,23.5,146.0,23.0,149.0,27.0,150.0,22.0,148.5,20.0,144.5,21.0,140.0,21.5,136.0,21.5,132.5,17.0,135.0" stroke="black" stroke-width="2" fill="none" />
<polyline points="18.0,135.5,22.0,134.0" stroke="black" stroke-width="2" fill="none" />
<polyline points="28.0,131.5,27.5,135.5,26.5,137.5,21.5,139.5,26.5,138.0,29.0,137.5" stroke="black" stroke-width="2" fill="none" />
<polyline points="7.0,131.0,7.0,135.0,6.5,139.0,6.0,143.5,6.5,147.5,6.5,151.5" stroke="black" stroke-width="2" fill="none" />
<polyline points="3.0,136.5,3.0,132.5,5.0,130.5" stroke="black" stroke-width="2" fill="none" />
<polyline points="8.5,128.0,8.5,124.0" stroke="black" stroke-width="2" fill="none" />
<polyline points="57.5,257.0,56.0,259.5,57.0,260.5" stroke="black" stroke-width="2" fill="none" />
<polyline points="2.0,288.0,6.0,288.0,10.0,288.5,14.0,288.0,18.0,287.5,22.5,287.0,26.5,287.0,30.5,287.5,34.5,286.5,38.5,286.5,43.0,286.0,46.5,286.0,50.0,286.0,53.5,285.5,57.5,285.5,61.5,285.0,65.5,284.5,69.5,284.5,73.5,283.5,78.0,283.5,81.5,283.0,86.0,283.0,90.0,282.5,94.0,282.5,94.0,284.0,92.5,288.0,91.5,292.5,90.0,296.5,89.0,300.5,88.5,305.0,88.0,309.0,88.0,312.5,87.5,316.5,87.0,320.5,86.5,324.5,86.5,328.5,86.0,332.5,86.5,336.5,87.5,340.5,88.5,344.5,89.0,348.5,90.5,352.5,95.0,356.5" stroke="black" stroke-width="2" fill="none" />
<polyline points="95.0,354.5,90.5,350.0" stroke="black" stroke-width="2" fill="none" />
<polyline points="89.0,349.0,93.0,355.0,97.0,358.0,101.0,359.5,105.0,358.5,109.0,355.5,112.5,353.5,116.5,352.0,120.5,351.0,120.0,355.0,120.0,359.5,120.0,363.5,120.0,367.5,119.5,371.5,119.0,375.0,118.5,378.5,118.0,382.5" stroke="black" stroke-width="2" fill="none" />
<polyline points="106.5,358.0,112.0,354.5,120.0,350.5,127.0,346.0,132.5,342.0,138.0,337.5,142.0,333.5,145.5,329.5,149.0,325.5,152.5,321.5,156.0,318.0,159.5,314.5,162.5,310.5,166.0,307.0,168.5,303.5,168.5,303.5,164.5,308.0,160.5,313.0,156.5,318.0,153.0,323.0,149.0,327.5,144.5,332.0,140.5,336.0,136.5,340.0,132.5,342.5,128.0,345.5,124.0,348.0,120.0,351.5" stroke="black" stroke-width="2" fill="none" />
<polyline points="116.0,348.5,108.0,351.5" stroke="black" stroke-width="2" fill="none" />
<polyline points="105.0,347.0,101.5,346.0,97.5,345.5,93.0,343.5,89.5,340.5" stroke="black" stroke-width="2" fill="none" />
<polyline points="88.5,342.5,88.5,344.0,89.0,348.0,90.5,352.0,96.5,356.0,101.5,354.5,105.5,353.5,109.5,351.5,113.5,350.0" stroke="black" stroke-width="2" fill="none" />
</svg>